Coordinates
version=1
nRows=29
nColumns=24
inDegrees=yes

Units are S.I. units (second, meters, Newtons, ...)
Angles are in degrees.

endheader
time	pelvis_tilt	pelvis_list	pelvis_rotation	pelvis_tx	pelvis_ty	pelvis_tz	hip_flexion_r	hip_adduction_r	hip_rotation_r	knee_angle_r	ankle_angle_r	subtalar_angle_r	mtp_angle_r	hip_flexion_l	hip_adduction_l	hip_rotation_l	knee_angle_l	ankle_angle_l	subtalar_angle_l	mtp_angle_l	lumbar_extension	lumbar_bending	lumbar_rotation
      2.46500000	      9.89739938	      4.93751221	     -2.72456734	      0.62001627	      0.93953375	      0.00065673	    -13.04819938	     -7.13391564	     -3.22119823	    -48.11389356	      4.67836737	     -3.60662150	     54.38755044	      4.37895462	      8.18874441	     -9.34096716	    -10.88396658	      5.53970406	    -15.94581055	     25.64867932	    -19.23903158	     -7.43969239	      1.90521517
      2.47000000	      9.59048019	      5.01406458	     -2.80141706	      0.62509073	      0.93954095	      0.00011043	    -11.69729974	     -7.30326809	     -2.83846395	    -49.94765280	      3.45107683	     -3.85834150	     54.02393598	      4.52307989	      8.27537537	     -9.51682964	    -11.19205379	      6.13269786	    -15.59324649	     25.31878932	    -18.93886233	     -7.55312869	      1.91210048
      2.47500000	      9.41955089	      5.11715573	     -2.90808731	      0.63021261	      0.93973344	     -0.00034574	    -10.52160719	     -7.49590895	     -2.48571535	    -51.68694976	      2.51595228	     -4.09334582	     52.10675920	      4.47092296	      8.39521323	     -9.73259802	    -11.42848245	      6.97077508	    -14.96617844	     22.97177224	    -18.78032695	     -7.71257162	      1.94857842
      2.48000000	      9.28776625	      5.20029117	     -3.04540011	      0.63538859	      0.94004242	     -0.00075996	     -9.41478996	     -7.65808972	     -2.11688330	    -53.28859959	      1.60853154	     -4.53122371	     51.90316782	      4.30440222	      8.50813408	     -9.95119122	    -11.49902171	      7.45289575	    -14.74104110	     22.90858311	    -18.65208851	     -7.85330073	      2.00106305
      2.48500000	      9.11247567	      5.22612924	     -3.10617581	      0.64043348	      0.94028542	     -0.00119118	     -8.27188427	     -7.72371934	     -1.81250550	    -54.84965479	      1.03053089	     -4.68056733	     49.70537290	      4.24779434	      8.53164358	    -10.19466752	    -11.72412330	      8.20416006	    -14.04764570	     21.35823368	    -18.49912371	     -7.91541091	      2.01411114
      2.49000000	      8.95379639	      5.23542109	     -3.18502040	      0.64550145	      0.94061113	     -0.00159675	     -7.17093692	     -7.76296283	     -1.50991432	    -56.28306422	      0.50056802	     -5.03659829	     49.28978303	      4.12365918	      8.54961341	    -10.42198544	    -11.83427875	      8.70809955	    -13.66253426	     21.21278063	    -18.35933950	     -7.95948273	      2.03164392
      2.49500000	      8.88170034	      5.23883162	     -3.26371522	      0.65057684	      0.94106249	     -0.00195969	     -6.19434023	     -7.78710904	     -1.25115438	    -57.63744926	      0.40058641	     -5.25027574	     46.74923712	      3.87699338	      8.56575919	    -10.64474825	    -11.90484946	      9.35474998	    -13.08684333	     19.90354117	    -18.31415880	     -8.00256665	      2.05760399
      2.50000000	      8.77201163	      5.19856749	     -3.34187220	      0.65559266	      0.94150212	     -0.00230580	     -5.18691804	     -7.74674779	     -0.99129990	    -58.88655126	      0.29721003	     -5.64791993	     46.41129105	      3.66380283	      8.53655367	    -10.83488065	    -11.94687920	      9.80382128	    -12.73983104	     19.82489907	    -18.23250150	     -7.99365563	      2.10783744
      2.50500000	      8.70990671	      5.15949334	     -3.38796765	      0.66062294	      0.94201512	     -0.00264501	     -4.26397809	     -7.70015701	     -0.80578968	    -60.06564406	      0.59278648	     -5.85278983	     43.76274622	      3.39314154	      8.50441968	    -11.05135529	    -11.99689408	     10.41336114	    -12.13628565	     18.64262633	    -18.20670370	     -7.98000001	      2.08585638
      2.51000000	      8.61397634	      5.07729271	     -3.43906487	      0.66557768	      0.94251847	     -0.00297474	     -3.31160231	     -7.59390411	     -0.62222739	    -61.13853588	      0.81902709	     -6.28929754	     43.46555233	      3.14809577	      8.43426151	    -11.18868174	    -12.00732492	     10.81853010	    -11.80595699	     18.57378994	    -18.14929664	     -7.91753301	      2.12192345
      2.51500000	      8.56536158	      4.98314148	     -3.46988830	      0.67056735	      0.94310147	     -0.00329212	     -2.44768547	     -7.46959546	     -0.49660575	    -62.12890241	      1.40596692	     -6.55808822	     41.09444543	      2.83962494	      8.34971175	    -11.36385400	    -12.01263410	     11.35417832	    -11.28718388	     17.55454986	    -18.14318294	     -7.83613974	      2.09644190
      2.52000000	      8.48694079	      4.87967684	     -3.49670042	      0.67551190	      0.94366327	     -0.00361798	     -1.55953084	     -7.32616201	     -0.39385081	    -63.02025737	      1.83880799	     -7.14537779	     40.89754228	      2.54320570	      8.26745550	    -11.45225515	    -11.95599679	     11.69481873	    -11.03982679	     17.52910580	    -18.10910552	     -7.73962591	      2.08833517
      2.52500000	      8.37025960	      4.70263878	     -3.49851626	      0.68036247	      0.94416791	     -0.00388515	     -0.64688686	     -7.07820787	     -0.30681435	    -63.83902319	      2.48732273	     -7.54693491	     39.98691172	      2.34676518	      8.07769376	    -11.60271450	    -12.03697094	     12.19911214	    -10.55820093	     17.26996128	    -18.04383463	     -7.56123759	      2.09064437
      2.53000000	      8.28355994	      4.60052499	     -3.49042365	      0.68525501	      0.94470788	     -0.00419608	      0.22327034	     -6.93058668	     -0.29872710	    -64.60094148	      3.19955622	     -8.05652551	     38.06183148	      2.06785056	      7.98931344	    -11.66581628	    -12.00455744	     12.63099957	    -10.11254372	     16.58121301	    -18.00730121	     -7.45884838	      2.05339137
      2.53500000	      8.28441200	      4.43495817	     -3.50902024	      0.69017856	      0.94543369	     -0.00449328	      0.95623874	     -6.70944813	     -0.28262636	    -65.20138525	      3.73281655	     -8.82136094	     37.81805116	      1.63571594	      7.86627223	    -11.64850157	    -11.84498039	     12.84590230	    -10.09852003	     16.50671509	    -18.06302906	     -7.28866850	      2.06218299
      2.54000000	      8.18178028	      4.29369608	     -3.49002966	      0.69500561	      0.94592759	     -0.00475226	      1.81660681	     -6.50457683	     -0.30706424	    -65.80898471	      4.50585674	     -9.31677859	     36.04692446	      1.39864616	      7.72381299	    -11.74620801	    -11.86412076	     13.32820758	     -9.58128138	     15.94904555	    -18.01530846	     -7.14142678	      2.02888792
      2.54500000	      8.17792429	      4.08801344	     -3.45649918	      0.69985722	      0.94665331	     -0.00506410	      2.51197388	     -6.22393205	     -0.36577499	    -66.23834877	      5.02197595	    -10.17654085	     35.83988100	      0.98908552	      7.55607494	    -11.65622043	    -11.73848761	     13.51264059	     -9.62731868	     15.89467833	    -18.07990191	     -6.91363731	      1.99006271
      2.55000000	      8.11738235	      3.89716673	     -3.39300389	      0.70470836	      0.94725560	     -0.00538392	      3.26064262	     -5.96296736	     -0.48042939	    -66.61652885	      5.53145218	    -11.03072495	     35.49287140	      0.65794297	      7.38926929	    -11.59275862	    -11.65070987	     13.79019835	     -9.48857155	     15.84497876	    -18.07959788	     -6.69376722	      1.92294038
      2.55500000	      8.05716620	      3.72024535	     -3.37061009	      0.70959101	      0.94782248	     -0.00562088	      4.01188381	     -5.71987396	     -0.56957177	    -66.96841753	      6.29119143	    -11.55181533	     32.78525097	      0.32658451	      7.22510740	    -11.64820724	    -11.57571236	     14.23663117	     -9.05438250	     15.07373461	    -18.06825879	     -6.50193286	      1.93709474
      2.56000000	      8.03219958	      3.48842107	     -3.26676400	      0.71443788	      0.94848954	     -0.00598307	      4.66637354	     -5.41524958	     -0.74328966	    -67.16055007	      6.75588841	    -12.37521985	     32.63861874	     -0.05336117	      7.02513750	    -11.49599678	    -11.46479844	     14.42640897	     -9.08714565	     15.04458355	    -18.11173331	     -6.22258908	      1.84461219
      2.56500000	      7.99995221	      3.26635098	     -3.16552305	      0.71928560	      0.94911938	     -0.00632630	      5.32446604	     -5.12193075	     -0.92487388	    -67.29563911	      7.16103795	    -13.21122237	     32.32623550	     -0.43091334	      6.82999284	    -11.34568601	    -11.34341162	     14.66978759	     -8.97033013	     15.00335873	    -18.14351656	     -5.95416842	      1.77368182
      2.57000000	      7.98770834	      3.03542341	     -3.04915687	      0.72417229	      0.94976977	     -0.00667953	      5.92823342	     -4.82928077	     -1.14693342	    -67.34093206	      7.60413309	    -13.99609121	     31.99127654	     -0.81894488	      6.62355827	    -11.24901012	    -11.24833410	     14.91323675	     -8.90083954	     14.96086312	    -18.19186142	     -5.67197140	      1.69943925
      2.57500000	      8.08828936	      2.80350812	     -2.97738513	      0.72913161	      0.95055385	     -0.00688899	      6.38891012	     -4.52275729	     -1.31729409	    -67.31924018	      8.19686711	    -14.57407219	     29.96451980	     -1.36045121	      6.40292752	    -11.31701812	    -11.11003493	     15.27411163	     -8.42077124	     14.51903810	    -18.35446421	     -5.41267125	      1.64974699
      2.58000000	      8.05811505	      2.54679801	     -2.81902546	      0.73399384	      0.95113922	     -0.00733221	      6.97731537	     -4.21341977	     -1.58513347	    -67.22425124	      8.59563970	    -15.19971825	     29.78538698	     -1.73108494	      6.17855676	    -11.07226621	    -10.99835890	     15.47044727	     -8.56375628	     14.47267600	    -18.38375195	     -5.08093577	      1.57279905
      2.58500000	      8.09470733	      2.30350257	     -2.65327002	      0.73887754	      0.95180574	     -0.00772966	      7.47056920	     -3.91184286	     -1.85213272	    -67.05243397	      8.95979000	    -15.84870107	     29.47862705	     -2.19079815	      5.96147945	    -10.85607194	    -10.85386187	     15.68128325	     -8.52448074	     14.42513173	    -18.48636804	     -4.76897084	      1.44816055
      2.59000000	      8.19531933	      2.04265137	     -2.50578156	      0.74386271	      0.95253960	     -0.00807591	      7.85750710	     -3.60259134	     -2.12831414	    -66.80159721	      9.57823211	    -16.19593130	     27.45514851	     -2.72324251	      5.71450042	    -10.79332607	    -10.72567525	     16.00968532	     -8.26426446	     13.90796140	    -18.64265218	     -4.44621331	      1.38426721
      2.59500000	      8.24090643	      1.77590231	     -2.34207544	      0.74875561	      0.95316585	     -0.00849326	      8.30684802	     -3.29233067	     -2.41445136	    -66.48962017	      9.93952532	    -16.68590122	     27.36538946	     -3.17469759	      5.46980153	    -10.61525920	    -10.61261194	     16.19776356	     -8.31747824	     13.89674450	    -18.74649252	     -4.10052418	      1.31509094
      2.60000000	      8.35480455	      1.49893914	     -2.15038493	      0.75370708	      0.95388285	     -0.00890455	      8.64102161	     -2.97086615	     -2.72590612	    -66.08000755	     10.27844150	    -17.15424622	     27.17440422	     -3.72344680	      5.20837009	    -10.41877943	    -10.45970535	     16.42474121	     -8.24304121	     13.88167198	    -18.92052437	     -3.74105424	      1.18929529
      2.60500000	      8.45415424	      1.20712406	     -1.97301094	      0.75864974	      0.95454063	     -0.00931702	      8.97728131	     -2.64573501	     -3.04378019	    -65.60763684	     10.67822117	    -17.48658035	     26.99961100	     -4.22617004	      4.92561915	    -10.29012144	    -10.36448885	     16.64568797	     -8.21281198	     13.86586449	    -19.07412307	     -3.36378093	      1.14627708
